<svg xmlns="http://www.w3.org/2000/svg" width="1200" height="280" viewBox="0 0 1200 280" role="img" aria-label="SectorPulse">
  <defs>
    <linearGradient id="bg" x1="0%" y1="0%" x2="100%" y2="100%">
      <stop offset="0%" stop-color="#F4F8FC"/>
      <stop offset="50%" stop-color="#EEF5FF"/>
      <stop offset="100%" stop-color="#E8F8F2"/>
    </linearGradient>
    <linearGradient id="accent" x1="0%" y1="0%" x2="100%" y2="0%">
      <stop offset="0%" stop-color="#1A9E72"/>
      <stop offset="40%" stop-color="#2B7DE9"/>
      <stop offset="70%" stop-color="#D97706"/>
      <stop offset="100%" stop-color="#E11D48"/>
    </linearGradient>
    <filter id="soft" x="-20%" y="-20%" width="140%" height="140%">
      <feGaussianBlur stdDeviation="18"/>
    </filter>
  </defs>
  <rect width="1200" height="280" rx="24" fill="url(#bg)"/>
  <circle cx="980" cy="40" r="120" fill="#2EE6A6" opacity="0.22" filter="url(#soft)"/>
  <circle cx="1080" cy="200" r="90" fill="#4DA3FF" opacity="0.2" filter="url(#soft)"/>
  <circle cx="160" cy="220" r="100" fill="#F0B429" opacity="0.16" filter="url(#soft)"/>
  <rect x="0" y="0" width="1200" height="6" fill="url(#accent)"/>
  <g transform="translate(60, 88)">
    <circle cx="42" cy="42" r="38" fill="none" stroke="#CBD5E1" stroke-width="7"/>
    <circle cx="42" cy="42" r="38" fill="none" stroke="#0F766E" stroke-width="7" stroke-linecap="round" stroke-dasharray="90 150" transform="rotate(-90 42 42)"/>
    <circle cx="42" cy="42" r="13" fill="#0F766E"/>
    <rect x="36" y="0" width="12" height="16" rx="3" fill="#0F766E"/>
  </g>
  <text x="168" y="130" fill="#0F766E" font-family="Segoe UI, Helvetica, Arial, sans-serif" font-size="64" font-weight="700" letter-spacing="4">SECTORPULSE</text>
  <text x="168" y="178" fill="#64748B" font-family="Segoe UI, Helvetica, Arial, sans-serif" font-size="20">USB detect · Raw NTFS · Bad-sector skip · Resume journals · PDF / video repair</text>
  <g transform="translate(920, 95)" opacity="0.95">
    <rect x="0" y="40" width="14" height="40" rx="4" fill="#1A9E72"/>
    <rect x="22" y="20" width="14" height="60" rx="4" fill="#2EE6A6"/>
    <rect x="44" y="8" width="14" height="72" rx="4" fill="#4DA3FF"/>
    <rect x="66" y="28" width="14" height="52" rx="4" fill="#F0B429"/>
    <rect x="88" y="14" width="14" height="66" rx="4" fill="#FF5C7A"/>
    <rect x="110" y="36" width="14" height="44" rx="4" fill="#1A9E72"/>
    <rect x="132" y="22" width="14" height="58" rx="4" fill="#4DA3FF"/>
  </g>
</svg>
